<svg width="134" height="108" viewBox="0 0 134 108" fill="none" xmlns="http://www.w3.org/2000/svg">
<g clip-path="url(#clip0_207_363)">
<path d="M71.5596 25.8401C71.6896 24.5801 72.5896 14.0801 64.6196 6.70008C59.3796 1.85008 50.4196 -1.52992 43.6796 1.89008C32.9696 7.31008 35.0796 26.2201 35.1996 27.2101C35.6296 30.7101 36.4296 33.5301 37.4996 35.9801C43.2696 49.2301 50.6796 55.5501 54.7996 61.4601C59.5096 68.1901 62.8296 80.1001 55.6596 102.74C56.4396 94.1501 60.0496 89.3501 61.8096 87.3801C63.6796 85.2701 65.5696 83.9601 67.8496 82.3801C74.3196 77.9201 80.1896 75.9401 81.7096 75.3201C97.5696 68.9001 105.51 65.6801 112.83 60.3001C117.68 56.7301 125.67 50.6901 129.97 39.8601C131.76 35.3601 135.91 24.8501 131.05 15.1501C125.65 4.37008 111.51 0.270082 100.78 1.45008C87.7796 2.88008 76.5096 12.4101 71.5596 25.8401Z" stroke="black" stroke-miterlimit="10"/>
<path d="M25.6597 76C24.7797 69.5 20.4597 63.9101 14.9897 62.7301C14.3597 62.5901 8.66967 61.4601 4.52967 65.3501C3.78967 66.0501 0.939666 68.3501 0.539666 72.1001C0.159666 75.7101 2.23967 78.6501 3.75967 80.7901C4.79967 82.2601 5.73967 83.2501 6.48967 83.8901C11.2097 87.8601 15.4897 89.8701 16.6597 90.4501C20.7097 92.4501 26.8797 96.6401 36.3297 106.18C36.0497 103.68 35.9397 99.9501 37.1997 95.8001C38.4897 91.5501 40.1097 90.4801 43.6997 83.3401C46.1797 78.4001 47.4297 75.8601 47.6597 72.5701C47.8197 70.2801 48.1597 65.5301 44.8697 62.4001C41.5697 59.2601 36.8797 59.9101 36.6697 59.9401C31.1397 60.7901 24 69.5 25.6597 76.5V76Z" stroke="black" stroke-miterlimit="10"/>
</g>
<defs>
<clipPath id="clip0_207_363">
<rect width="133.82" height="107.55" fill="white"/>
</clipPath>
</defs>
</svg>
