<svg width="139" height="134" viewBox="0 0 139 134" fill="none" xmlns="http://www.w3.org/2000/svg">
<g clip-path="url(#clip0_179_156)">
<path d="M7.27342 39.7309C7.99342 39.6509 9.14342 39.4409 10.4334 38.8509C10.8034 38.6809 11.5734 38.3109 12.4234 37.6709C13.0734 37.1909 14.7034 35.9309 15.6534 33.8209C15.9734 33.1109 16.2034 31.5409 16.6834 28.4009C16.7434 28.0009 17.0234 26.0909 17.0234 26.0909C17.6134 32.2609 18.1834 33.6409 18.1834 33.6409C18.6234 34.7109 19.7134 37.1109 22.3034 38.6209C23.1534 39.1109 24.6334 39.7709 26.7734 39.7309C25.5634 40.1309 22.7834 41.2709 20.5534 44.2409C17.1334 48.8109 17.7134 54.1509 17.8434 55.1409C18.0034 53.8109 18.2334 50.3009 16.3834 46.6809C13.5334 41.1009 8.06342 39.9009 7.25342 39.7309H7.27342Z" stroke="black" stroke-miterlimit="10"/>
<path d="M67.3754 48.2447C67.3754 48.2447 51.6811 13.4324 22.2644 26.158C-7.15228 38.8836 12.0919 72.2814 12.0919 72.2814C16.3348 78.9804 23.6069 88.5022 35.2917 96.3082C37.5055 97.7839 42.9825 101.275 61.3514 108.193C70.0124 111.453 81.9404 115.624 96.5171 119.762C94.4478 114.353 92.4079 106.305 94.8337 97.8092C96.1721 93.1155 98.1548 90.7793 102.671 84.3769C112.537 70.394 117.476 63.4067 120.722 54.9101C122.872 49.285 126.327 39.8836 124.085 28.4548C123.155 23.7023 120.969 12.6191 111.625 7.07867C101.251 0.924836 87.1506 5.12793 78.7556 11.914C68.5993 20.1496 64.265 34.2618 67.3722 48.2249L67.3754 48.2447Z" stroke="black" stroke-miterlimit="10"/>
<path d="M31.4552 49.1084C31.9552 49.0384 32.7552 48.8784 33.6552 48.3984C33.9152 48.2584 34.4452 47.9584 35.0452 47.4484C35.4952 47.0584 36.6352 46.0384 37.3052 44.3384C37.5252 43.7684 37.6952 42.4984 38.0252 39.9584C38.0652 39.6384 38.2652 38.0884 38.2652 38.0884C38.6752 43.0784 39.0752 44.1884 39.0752 44.1884C39.3852 45.0484 40.1352 46.9984 41.9552 48.2184C42.5452 48.6184 43.5852 49.1484 45.0752 49.1184C44.2352 49.4484 42.2952 50.3584 40.7452 52.7584C38.3652 56.4484 38.7652 60.7684 38.8552 61.5684C38.9652 60.4884 39.1252 57.6484 37.8452 54.7284C35.8552 50.2184 32.0252 49.2484 31.4552 49.1084Z" stroke="black" stroke-miterlimit="10"/>
</g>
<defs>
<clipPath id="clip0_179_156">
<rect width="121.57" height="115.36" fill="white" transform="translate(0 19.3931) rotate(-9.17917)"/>
</clipPath>
</defs>
</svg>
