<?xml version="1.0" encoding="UTF-8"?>
<svg id="Layer_2" xmlns="http://www.w3.org/2000/svg" version="1.1" viewBox="0 0 140.1 83.2">
  <!-- Generator: Adobe Illustrator 30.2.1, SVG Export Plug-In . SVG Version: 2.1.1 Build 1)  -->
  <defs>
    <style>
      .st0 {
        fill: none;
        stroke: red;
        stroke-miterlimit: 10;
      }
    </style>
  </defs>
  <g id="Layer_2-2">
    <path class="st0" d="M48.5,77.4c1.4-.6,5.3-2.4,10-5.4,2-1.3,4.4-2.9,7-5,0,0,0,0,0,0,0,0,4-3.2,10.4-10,1.3-1.4,2.7-3,4.4-5.1.5-.7,1-1.4,1.6-2.1,1.1-1.6,2.8-4,4.4-7.4.8-1.7,1.5-3.5,2.7-6.6.6-1.5,1.1-2.7,1.4-3.6-.1,1.4,0,3.5.8,5.6.3.6.7,1.5,1.5,2.4,1.1,1.2,2.5,1.7,3.7,2,8.6,2.9,15.6,1.8,18.8,1.1,2-.4,10.5-1.9,11.8-5.5.5-1.4.3-2.2-.5-3.1-2.1-2.5-14.6-2.5-14.6-2.5-7.7,0-15.2,0-18.6-4.3-2.3-3-2.2-7.5-.9-10.5,2.2-4.9,7.7-6.2,10.9-7.2,3-.8,7.8-.8,10.4-.2,1.4.3,3.7,1.1,7.3,2.4,2.4.9,4.2,1.5,5.8.6,1-.5,1.6-1.4,1.9-2,.4-.8.6-1.6.8-2.1.4-1.4.6-3.7.9-4.8,0,3.9.1,5.8.1,5.8,0,.7.1,1.9.7,3.2,0,0,.1.4.3.6,1,1.8,3.7,2.7,3.7,2.7-1.1,0-2,0-2.6.2-1.5.3-2.1.7-2.3.8-.4.3-.7.7-.9.9-1.3,1.7-1.9,4.8-2,5.3-.2-1.4-.3-2.9-.5-4.3,0-.8-.3-1.4-.7-2-.6-.9-1.8-1.3-2.1-1.4-5.1-1.7-10-.2-10-.2-2,.6-5.8,1.7-7.6,5-.3.6-.9,1.8-.6,3.1.4,1.9,2.4,2.8,3.3,3.2,5.2,2.2,19.8.6,24.4,4.1,3.1,2.4,5.8,8.1-.3,15.1-3.5,4-7.1,5.5-11,7.3-13.7,6.3-28.2,3.7-33.2,4.1-.5,0-1.6,0-3,.4-4.3,1-7.3,3.8-9.2,6.1-2.2,2.6-5.6,5.9-10.5,8.8-8.5,4.9-16.7,5.4-20.8,5.4.7-.3,1.7-.7,2.9-1.2Z"/>
    <path class="st0" d="M35.4,45.6c-1.2,7.7-1.1,14.2-.8,18.7-8.3,1.7-18.8,5.2-28.5,12.8-1.5,1.2-2.9,2.4-4.2,3.6,4.2-7.8,8.2-13.7,10.9-17.5,6-8.3,8.3-9.8,13.3-17.9,0,0,5.2-8.3,7.9-17.2,0-.1.5-1.8.5-1.8h0c.6-2.5.7-4.7.6-6.1-5.2,1.4-12.8,4.1-19.5,9.2-.9.7-4.8,3.7-6.5,8.5-1.1,2.9-.5,4.1-.2,4.5.9,1.2,2.7,1.2,2.9,1.2,1.9-.1,3.6-1.8,4.2-4.2,0,0,0,2.9,1.8,4.7.7.7,1.5,1,2,1.2-.8.2-2.1.7-3.4,1.6-2.2,1.7-3,4-3.3,4.8.1-2.8-.5-4.3-1.3-5-.9-.8-2.2-.8-3.7-2-.9-1-.5-.6-1.3-1.6-2.2-3.6-.8-8.1-.4-9.3,4-14.7,34.3-22.9,38.9-24.4,2.5-.8,4-2.6,4-2.6-4.5,11.7-8.9,23.5-13.4,35.2"/>
    <path class="st0" d="M35,46c2.1-.5,10.1-1.3,14.4,3.5,5.2,5.7-2.2,19.4-6.8,23.3-1.1.9-1.8,2-2.5,2.6,5.6-3,16.6-10.8,19.9-13.7,2.6-2.3,6.8-7.3,7.3-10.6,0-.6.5-4.2-1.3-7.2-2.8-4.6-13.8-7.4-21.4-5.1,5.2-6,19.8-15.7,36-19,3.1-.6,6-.9,8.7-1,.5-2.3,1.6-5.9,4.2-9.6,3.6-5.1,8.2-7.6,10.4-8.6-1.7,0-4.2.3-7.1,1-3.9.9-6.9,1.4-12.4,4-7.6,3.2-15.4,8.2-19.6,10.9-4.3,2.8-6.9,4.6-8.4,5.8-4.4,3.2-8.4,7-20,19.1-.2.2.2-.7-.4.5,0,0,2-2.2,2.2-2.4"/>
  </g>
</svg>