<svg width="126" height="175" viewBox="0 0 126 175" fill="none" xmlns="http://www.w3.org/2000/svg">
<path d="M11.5 112.5C15.5 111.5 18.9713 109.649 20.8529 108.343C22.7346 107.038 29.4109 102.089 32.2877 92.7342C34.0247 87.078 33.6628 82.1831 33.2467 79.5C32.342 93.2418 37.7518 105.497 47.4678 110.7C49.7475 111.915 53.7461 113.565 59.4997 113.456C56.261 114.471 48.7705 117.281 42.7817 124.678C33.5904 136.045 35.1464 149.351 35.4721 151.817C35.8883 148.499 36.5396 139.761 31.564 130.751C23.8926 116.864 13 113.5 6.99365 113.456L11.5 112.5Z" stroke="black" stroke-miterlimit="10"/>
<path d="M81.3173 127.205C84.5 125.612 85.1592 124.681 86.1268 123.526C87.0944 122.371 90.5276 117.991 92.0069 109.712C92.9001 104.706 93 100.5 92.5 98C92.0348 110.161 94.8167 121.007 99.8129 125.612C100.985 126.687 103 128.051 106 128.051C104.335 128.949 99.8129 130 97.5 136.5C92.7736 146.56 93.5 160 94 161.5C94 158.5 94.1933 151.331 91.6347 143.357C87.6899 131.067 85.5 130 79 128.051L81.3173 127.205Z" stroke="black" stroke-miterlimit="10"/>
<path d="M44.892 65.4578C49.2344 64.0197 53.0028 61.3572 55.0455 59.4801C57.0882 57.6029 63.5 51 67 37.5C67.6481 35 69 20 68.5 18C68 37.5 73.3908 55.3868 83.9383 62.8694C86.4132 64.6162 90.754 66.9887 97 66.8323C93.4841 68.2923 85.3525 72.3334 78.8511 82.9707C68.8732 99.3176 70.1465 118.454 70.5 122C71 117.5 72.0748 104.662 66.6733 91.7047C58.3453 71.7338 46.5204 66.8959 40 66.8323L44.892 65.4578Z" stroke="black" stroke-miterlimit="10"/>
</svg>
